<svg fill="#FFFFFF" xmlns="http://www.w3.org/2000/svg"  viewBox="0 0 24 24" width="24px" height="24px"><path d="M 13.5 1.9882812 C 13.131664 1.9882813 12.768981 2.0181808 12.412109 2.0703125 C 12.411475 2.0704052 12.410791 2.0702197 12.410156 2.0703125 C 12.398769 2.0720265 12.388321 2.0763582 12.376953 2.078125 C 9.9682363 2.4418879 7.8732607 3.9529282 6.7890625 6.1386719 C 6.3690625 6.0386719 5.94 5.9882812 5.5 5.9882812 C 5.310625 5.9882812 5.1239868 5.9987476 4.9394531 6.0175781 C 4.5705616 6.0552654 4.2112119 6.1288782 3.8671875 6.2363281 C 3.007392 6.5046505 2.2377118 6.9813618 1.6152344 7.6035156 C 1.3657664 7.8528539 1.1396653 8.1248927 0.94140625 8.4179688 C 0.34744141 9.2959961 0 10.352031 0 11.488281 C 0 11.677541 0.010453229 11.864382 0.029296875 12.048828 C 0.029361862 12.049467 0.029231668 12.050142 0.029296875 12.050781 C 0.048138651 12.234562 0.074704965 12.41568 0.11132812 12.59375 C 0.14812405 12.773158 0.19416484 12.948438 0.24804688 13.121094 C 0.30177184 13.293106 0.36383111 13.460608 0.43359375 13.625 C 0.43383086 13.62556 0.43335646 13.626394 0.43359375 13.626953 C 0.5031777 13.790777 0.58143019 13.950145 0.66601562 14.105469 C 0.6662949 14.105982 0.66573619 14.106909 0.66601562 14.107422 C 0.75065941 14.26274 0.84268594 14.412707 0.94140625 14.558594 C 0.94171772 14.559054 0.94109465 14.560086 0.94140625 14.560547 C 1.3373828 15.145898 1.8423828 15.650898 2.4277344 16.046875 C 2.4281654 16.047167 2.4292564 16.046583 2.4296875 16.046875 C 2.868336 16.343418 3.3515673 16.579321 3.8671875 16.740234 C 4.0392407 16.793928 4.2157715 16.840225 4.3945312 16.876953 C 4.7520508 16.95041 5.12125 16.988281 5.5 16.988281 L 9.2675781 16.988281 A 2 2 0 0 0 11 17.988281 A 2 2 0 0 0 11 13.988281 A 2 2 0 0 0 10.283203 14.123047 L 9.3847656 11.679688 L 9.5996094 12.248047 C 10.029609 12.078047 10.51 11.988281 11 11.988281 C 13.21 11.988281 15 13.778281 15 15.988281 C 15 18.198281 13.21 19.988281 11 19.988281 C 10.28 19.988281 9.6095313 19.798984 9.0195312 19.458984 L 8.0195312 21.199219 C 8.8895312 21.699219 9.91 21.988281 11 21.988281 C 13.972228 21.988281 16.438482 19.817763 16.912109 16.978516 L 20.199219 16.978516 C 20.299219 16.988516 20.4 16.988281 20.5 16.988281 C 22.43 16.988281 24 15.418281 24 13.488281 C 24 13.270256 23.978892 13.05726 23.939453 12.851562 C 23.667616 11.387058 22.480659 10.239568 21 10.029297 L 21 9.4882812 C 21 9.2301319 20.986626 8.9742251 20.960938 8.7226562 C 20.935383 8.4712764 20.897448 8.2239077 20.847656 7.9804688 C 20.847529 7.9798479 20.847784 7.9791365 20.847656 7.9785156 C 20.797803 7.7350944 20.734947 7.4959455 20.662109 7.2617188 C 20.661926 7.2611323 20.662293 7.260352 20.662109 7.2597656 C 19.931299 4.9117676 18.076514 3.0569824 15.728516 2.3261719 C 15.727916 2.3259852 15.727162 2.3263584 15.726562 2.3261719 C 15.493171 2.2533021 15.254148 2.1905927 15.011719 2.140625 C 15.01047 2.1403692 15.009062 2.1408802 15.007812 2.140625 C 14.764098 2.0905225 14.517194 2.0530319 14.265625 2.0273438 C 14.013599 2.0017236 13.75875 1.9882812 13.5 1.9882812 z M 8.9375 10.355469 C 8.9261217 10.359669 8.9136927 10.360963 8.9023438 10.365234 L 8.9003906 10.359375 C 8.9134002 10.357506 8.9245381 10.357271 8.9375 10.355469 z"/></svg>